<?xml version="1.0" encoding="iso-8859-1"?>
<!-- Uploaded to: SVG Repo, www.svgrepo.com, Generator: SVG Repo Mixer Tools -->
<svg fill="#000000" height="800px" width="800px" version="1.1" id="Layer_1" xmlns="http://www.w3.org/2000/svg" xmlns:xlink="http://www.w3.org/1999/xlink" 
	 viewBox="0 0 512 512" xml:space="preserve">
<g transform="translate(1 1)">
	<g>
		<g>
			<path d="M502.467,24.173H7.533C2.413,24.173-1,27.587-1,32.707v51.2c0,5.12,3.413,8.533,8.533,8.533h110.933v55.795
				c-10.458,9.391-17.067,22.995-17.067,38.071s6.609,28.68,17.067,38.071v38.853L75.8,252.013c-2.56-0.853-5.12,0-6.827,0.853
				c-2.56,0.853-3.413,2.56-4.267,5.12l-10.24,38.4c-2.56,9.387,0,19.627,4.267,28.16c1.154,2.308,2.629,4.422,4.34,6.339
				l-3.667,13.752L16.067,333.08V220.44c0-5.12-3.413-8.533-8.533-8.533S-1,215.32-1,220.44v119.467c0,4.267,2.56,7.68,5.973,8.533
				l49.897,13.208l-1.257,4.712c-5.12,19.627,6.827,40.107,26.453,45.227l274.773,73.387c3.413,0.853,5.973,0.853,9.387,0.853
				c6.827,0,12.8-1.707,18.773-5.973c4.928-2.464,8.995-6.355,12.051-11.007l42.562,11.007c0.853,0,1.707,0,2.56,0
				c1.707,0,3.413,0,3.413-0.853c2.56-0.853,3.413-2.56,4.267-5.12l2.154-8.156l25.152,6.449c0.853,0,1.707,0,2.56,0
				c4.267,0,7.68-2.56,8.533-6.827l15.36-58.027c1.707-4.267-1.707-9.387-5.973-10.24l-25.755-6.604l1.862-7.049
				c1.707-4.267-1.707-9.387-5.973-10.24l-23.022-5.903l2.542-8.604c0.853-2.56,0-5.12-0.853-6.827
				c-0.853-2.56-2.56-3.413-5.12-4.267l-252.587-66.408v-56.801c10.458-9.391,17.067-22.995,17.067-38.071
				c0-15.076-6.609-28.68-17.067-38.071V92.44h315.733c5.12,0,8.533-3.413,8.533-8.533v-51.2
				C511,27.587,507.587,24.173,502.467,24.173z M471.747,453.4l-16.213-4.267l11.093-40.96l16.213,4.267L471.747,453.4z
				 M374.467,466.2c-5.12,2.56-10.24,3.413-15.36,1.707L84.333,395.373c-11.093-2.56-17.067-13.653-14.507-24.747l7.68-29.867
				l312.977,83.347l-8.337,32.706c-0.314,0.785-0.452,1.598-0.446,2.409C380.065,462.118,377.815,464.526,374.467,466.2z
				 M454.68,386.84l-0.921,3.483c-1.253,0.958-1.878,2.353-2.493,4.197l-15.36,58.027c-0.58,1.74-0.365,3.473,0.095,4.945
				l-0.949,3.589l-33.28-8.533l3.414-13.655l4.692-17.204c3.001-0.903,5.834-2.237,8.449-3.921
				c7.894-4.443,13.434-12.6,15.872-21.541l3.991-13.509L454.68,386.84z M423.549,367.862c-0.631,0.807-1.09,1.734-1.296,2.764
				l-5.973,22.187c-1.236,5.563-5.165,10.219-10.152,12.694c-2.719,1.163-5.437,1.82-8.156,1.843L80.384,323.645
				c-3.35-1.873-6.131-4.521-7.998-7.631c-2.56-5.12-3.413-10.24-1.707-15.36l7.68-29.867l346.453,92.16L423.549,367.862z
				 M164.035,275.211l-28.501-7.838v-32.427c11.093,4.267,23.04,4.267,34.133,0v41.745L164.035,275.211z M152.6,220.44
				c-18.773,0-34.133-15.36-34.133-34.133s15.36-34.133,34.133-34.133c18.773,0,34.133,15.36,34.133,34.133
				S171.373,220.44,152.6,220.44z M169.667,138.06c-1.968-0.701-3.991-1.282-6.059-1.74c-0.022-0.005-0.044-0.01-0.066-0.015
				c-0.318-0.07-0.635-0.142-0.955-0.206c-3.227-0.702-6.604-0.991-9.987-0.991c-3.382,0-6.759,0.289-9.987,0.991
				c-0.32,0.064-0.637,0.136-0.954,0.206c-0.022,0.005-0.045,0.01-0.067,0.016c-2.068,0.458-4.091,1.039-6.059,1.74V92.44h34.133
				V138.06z M493.933,75.373H178.2H127H16.067V41.24h477.867V75.373z"/>
			<path d="M152.6,177.773c-5.12,0-8.533,3.413-8.533,8.533s3.413,8.533,8.533,8.533c5.12,0,8.533-3.413,8.533-8.533
				S157.72,177.773,152.6,177.773z"/>
		</g>
	</g>
</g>
</svg>