<?xml version="1.0" encoding="iso-8859-1"?>
<!-- Uploaded to: SVG Repo, www.svgrepo.com, Generator: SVG Repo Mixer Tools -->
<svg version="1.1" id="Layer_1" xmlns="http://www.w3.org/2000/svg" xmlns:xlink="http://www.w3.org/1999/xlink" 
	 viewBox="0 0 512 512" xml:space="preserve">
<path style="fill:#895129;" d="M396,256c4.4,0,8,3.6,8,8v24c0,4.4-3.6,8-8,8h-4H144h-24h-4c-4.4,0-8-3.6-8-8v-24c0-4.4,3.6-8,8-8h36
	h16h176h16H396z"/>
<polygon style="fill:#9F633C;" points="392,300 392,508 368,508 368,360 368,344 368,300 "/>
<path style="fill:#BD8150;" d="M352,4c17.6,0,32,14.4,32,32v56c0,17.6-14.4,32-32,32h-8H168h-8c-17.6,0-32-14.4-32-32V36
	c0-17.6,14.4-32,32-32H352z"/>
<rect x="144" y="344" style="fill:#895129;" width="224" height="16"/>
<g>
	<polygon style="fill:#9F633C;" points="344,124 352,124 360,124 360,256 344,256 	"/>
	<polygon style="fill:#9F633C;" points="152,124 160,124 168,124 168,256 152,256 	"/>
	<polygon style="fill:#9F633C;" points="144,344 144,360 144,508 120,508 120,296 144,296 	"/>
</g>
<path d="M144,512h-24c-2.4,0-4-1.6-4-4V296c0-2.4,1.6-4,4-4s4,1.6,4,4v208h16V360c0-2.4,1.6-4,4-4s4,1.6,4,4v148
	C148,510.4,146.4,512,144,512z"/>
<path d="M144,348c-2.4,0-4-1.6-4-4v-48c0-2.4,1.6-4,4-4s4,1.6,4,4v48C148,346.4,146.4,348,144,348z"/>
<path d="M368,348c-2.4,0-4-1.6-4-4v-44c0-2.4,1.6-4,4-4s4,1.6,4,4v44C372,346.4,370.4,348,368,348z"/>
<path d="M392,512h-24c-2.4,0-4-1.6-4-4V360c0-2.4,1.6-4,4-4s4,1.6,4,4v144h16V300c0-2.4,1.6-4,4-4s4,1.6,4,4v208
	C396,510.4,394.4,512,392,512z"/>
<path d="M344,260H168c-2.4,0-4-1.6-4-4s1.6-4,4-4h176c2.4,0,4,1.6,4,4S346.4,260,344,260z"/>
<path d="M396,300H116c-6.8,0-12-5.2-12-12v-24c0-6.8,5.2-12,12-12h36c2.4,0,4,1.6,4,4s-1.6,4-4,4h-36c-2.4,0-4,1.6-4,4v24
	c0,2.4,1.6,4,4,4h280c2.4,0,4-1.6,4-4v-24c0-2.4-1.6-4-4-4h-36c-2.4,0-4-1.6-4-4s1.6-4,4-4h36c6.8,0,12,5.2,12,12v24
	C408,294.8,402.8,300,396,300z"/>
<path d="M344,128H168c-2.4,0-4-1.6-4-4s1.6-4,4-4h176c2.4,0,4,1.6,4,4S346.4,128,344,128z"/>
<path d="M352,128c-2.4,0-4-1.6-4-4s1.6-4,4-4c15.6,0,28-12.4,28-28V36c0-15.6-12.4-28-28-28H160c-15.6,0-28,12.4-28,28v56
	c0,15.6,12.4,28,28,28c2.4,0,4,1.6,4,4s-1.6,4-4,4c-20,0-36-16-36-36V36c0-20,16-36,36-36h192c20,0,36,16,36,36v56
	C388,112,372,128,352,128z"/>
<path d="M352,28h-12c-2.4,0-4-1.6-4-4s1.6-4,4-4h12c2.4,0,4,1.6,4,4S354.4,28,352,28z"/>
<path d="M324,28h-12c-2.4,0-4-1.6-4-4s1.6-4,4-4h12c2.4,0,4,1.6,4,4S326.4,28,324,28z"/>
<path d="M148,64c-2.4,0-4-1.6-4-4V36c0-4.4,2-8.8,5.2-12c1.6-1.6,4-1.2,5.6,0.4s1.2,4-0.4,5.6c-1.6,1.6-2.8,3.6-2.8,6v24
	C152,62.4,150.4,64,148,64z"/>
<path d="M364,48c-2.4,0-4-1.6-4-4v-8c0-4.4-3.6-8-8-8c-2.4,0-4-1.6-4-4s1.6-4,4-4c8.8,0,16,7.2,16,16v8C368,46.4,366.4,48,364,48z"
	/>
<path d="M168,260h-16c-2.4,0-4-1.6-4-4V124c0-2.4,1.6-4,4-4h16c2.4,0,4,1.6,4,4v132C172,258.4,170.4,260,168,260z M156,252h8V128h-8
	V252z"/>
<path d="M360,260h-16c-2.4,0-4-1.6-4-4V124c0-2.4,1.6-4,4-4h16c2.4,0,4,1.6,4,4v132C364,258.4,362.4,260,360,260z M348,252h8V128h-8
	V252z"/>
<path d="M368,364H144c-2.4,0-4-1.6-4-4v-16c0-2.4,1.6-4,4-4h224c2.4,0,4,1.6,4,4v16C372,362.4,370.4,364,368,364z M148,356h216v-8
	H148V356z"/>
</svg>