<?xml version="1.0" encoding="iso-8859-1"?>
<!-- Uploaded to: SVG Repo, www.svgrepo.com, Generator: SVG Repo Mixer Tools -->
<svg version="1.1" id="Layer_1" xmlns="http://www.w3.org/2000/svg" xmlns:xlink="http://www.w3.org/1999/xlink" 
	 viewBox="0 0 512.003 512.003" xml:space="preserve">
<g>
	<path style="fill:#F0DCBE;" d="M368.334,319.876c0.025,13.218-10.77,24.053-23.988,24.078l-176.241,0.331
		c-13.218,0.025-24.053-10.77-24.078-23.988l0,0c-0.025-13.218,10.77-24.053,23.988-24.078l176.241-0.331
		C357.474,295.865,368.309,306.658,368.334,319.876L368.334,319.876z"/>
	<path style="fill:#F0DCBE;" d="M360.143,223.761c0.025,13.218-10.77,24.053-23.988,24.078l-160.219,0.301
		c-13.218,0.025-24.053-10.77-24.078-23.988L151.497,31.89c-0.025-13.218,10.77-24.053,23.988-24.078L335.704,7.51
		c13.218-0.025,24.053,10.77,24.078,23.988L360.143,223.761z"/>
</g>
<g>
	<circle style="fill:#707487;" cx="176.392" cy="488.468" r="16.022"/>
	<circle style="fill:#707487;" cx="336.611" cy="488.167" r="16.022"/>
</g>
<g>
	
		<rect x="192.26" y="392.201" transform="matrix(-0.0019 -1 1 -0.0019 -151.3875 665.3452)" style="fill:#464655;" width="128.175" height="32.044"/>
	
		<rect x="232.064" y="256.006" transform="matrix(-0.0019 -1 1 -0.0019 -15.4444 528.641)" style="fill:#464655;" width="48.066" height="32.044"/>
</g>
<path d="M424.231,216.13c-0.005,0-0.01,0-0.015,0l-16.022,0.03c-6.286,0.012-12.191,2.47-16.627,6.924
	c-4.436,4.453-6.872,10.367-6.861,16.653l0.105,56.077c0.008,4.413-1.702,8.566-4.818,11.692c-1.572,1.578-3.409,2.797-5.409,3.621
	c-3.823-13.122-15.965-22.748-30.342-22.748l-64.588,0.121l-0.062-33.045l56.577-0.106c17.393-0.033,31.516-14.209,31.484-31.602
	l-0.361-192.263C367.259,14.123,353.108,0,335.689,0L175.469,0.301c-8.399,0.016-16.306,3.319-22.266,9.302
	s-9.234,13.902-9.218,22.301l0.361,192.263c0.033,17.36,14.183,31.483,31.543,31.483c0.005,0,0.055,0,0.06,0l56.576-0.106
	l0.062,33.045L168,288.711c-8.398,0.016-16.306,3.319-22.266,9.302c-3.828,3.843-6.541,8.489-7.993,13.544
	c-6.013-2.463-10.269-8.367-10.282-15.259l-0.105-56.077c-0.012-6.286-2.47-12.191-6.923-16.627
	c-4.442-4.426-10.338-6.861-16.607-6.861c-0.015,0-0.03,0-0.045,0l-16.022,0.03c-4.148,0.008-7.504,3.377-7.496,7.524
	c0.008,4.143,3.369,7.496,7.51,7.496c0.005,0,0.01,0,0.015,0l16.022-0.03c0.005,0,0.011,0,0.016,0c2.267,0,4.4,0.881,6.007,2.482
	c1.61,1.605,2.5,3.74,2.504,6.014l0.105,56.077c0.028,15.07,10.676,27.679,24.832,30.758c3.133,14.116,15.754,24.713,30.789,24.713
	c0.005,0,0.054,0,0.059,0l64.588-0.121l0.213,113.155l-56.577,0.106c-6.286,0.012-12.191,2.47-16.627,6.924
	c-4.436,4.453-6.872,10.367-6.861,16.653c0.024,12.952,10.58,23.488,23.531,23.488c0.005,0,0.04,0,0.045,0
	c12.976-0.024,23.512-10.6,23.488-23.576c-0.006-3-0.583-5.868-1.618-8.509l42.158-0.079l0,0l0,0l32.044-0.06l0,0l0,0l42.155-0.079
	c-1.023,2.644-1.589,5.514-1.583,8.515c0.024,12.952,10.58,23.488,23.532,23.488c0.005,0,0.04,0,0.045,0
	c6.286-0.012,12.191-2.47,16.627-6.923c4.436-4.453,6.872-10.367,6.861-16.653c-0.024-12.942-10.564-23.471-23.547-23.487
	c-0.005,0-0.01-0.001-0.015-0.001s-0.01,0-0.015,0l-56.576,0.106l-0.213-113.155l64.588-0.121
	c8.398-0.016,16.306-3.319,22.266-9.302c4.323-4.339,7.224-9.7,8.49-15.522c5.838-1.282,11.198-4.199,15.518-8.535
	c5.946-5.969,9.213-13.896,9.198-22.322l-0.105-56.077c-0.004-2.274,0.877-4.413,2.482-6.023c1.604-1.61,3.74-2.5,6.013-2.504
	l16.022-0.03c4.148-0.008,7.504-3.377,7.496-7.524C431.733,219.483,428.372,216.13,424.231,216.13z M175.922,240.629l-0.032,7.51
	v-7.51c-9.093,0-16.505-7.398-16.523-16.492l-0.361-192.263c-0.008-4.386,1.71-8.532,4.839-11.671
	c3.128-3.14,7.267-4.874,11.654-4.882l160.25-0.301c9.093,0,16.506,7.398,16.523,16.492l0.361,192.262
	c0.017,9.11-7.381,16.537-16.492,16.554L175.922,240.629z M247.548,255.515l17.023-0.032l0.062,33.045l-17.023,0.032
	L247.548,255.515z M176.404,496.979l-0.017,7.51v-7.51c-4.684,0-8.502-3.811-8.511-8.496c-0.004-2.274,0.877-4.413,2.482-6.023
	c1.604-1.61,3.74-2.5,6.03-2.504c4.684,0,8.502,3.811,8.511,8.496C184.908,493.145,181.097,496.97,176.404,496.979z
	 M342.637,494.174c-1.605,1.61-3.74,2.5-6.014,2.504l-0.017,7.51v-7.51c-4.684,0-8.503-3.811-8.512-8.496
	c-0.009-4.693,3.802-8.519,8.513-8.528c4.683,0,8.502,3.811,8.511,8.496C345.122,490.425,344.241,492.563,342.637,494.174z
	 M264.965,464.769l-17.023,0.032l-0.213-113.155l17.023-0.032L264.965,464.769z M355.986,331.562
	c-3.128,3.139-7.266,4.874-11.653,4.882l-72.081,0.135c-0.001,0-0.002,0-0.003,0c-0.005,0-0.01,0-0.015,0c-0.001,0-0.002,0-0.004,0
	l-104.138,0.196l-0.031,7.51v-7.51c-9.093,0-16.506-7.398-16.523-16.492c-0.008-4.386,1.71-8.532,4.839-11.672
	c3.128-3.139,7.266-4.874,11.653-4.882l72.082-0.135c0.001,0,0.002,0,0.002,0c0.005,0,0.01,0,0.015,0c0.001,0,0.002,0,0.003,0
	l32.022-0.06c0.002,0,0.003,0,0.005,0c0.005,0,0.01,0,0.015,0c0.002,0,0.004,0,0.005,0l72.124-0.135
	c9.093,0,16.506,7.398,16.523,16.492C360.832,324.277,359.115,328.423,355.986,331.562z"/>
<path d="M327.782,63.101c0.005,0,0.01,0,0.015,0c4.148-0.008,7.504-3.377,7.496-7.524l-0.03-16.022
	c-0.008-4.143-3.369-7.496-7.51-7.496c-0.005,0-0.01,0-0.015,0c-4.148,0.008-7.504,3.377-7.496,7.524l0.03,16.022
	C320.28,59.749,323.641,63.101,327.782,63.101z"/>
<path d="M327.844,80.125c-0.005,0-0.01,0-0.015,0c-4.148,0.008-7.504,3.377-7.496,7.524l0.09,48.066
	c0.008,4.143,3.369,7.496,7.51,7.496c0.005,0,0.01,0,0.015,0c4.148-0.008,7.504-3.377,7.496-7.524l-0.09-48.066
	C335.345,83.478,331.984,80.125,327.844,80.125z"/>
</svg>