<?xml version="1.0" encoding="utf-8"?>
<!-- Uploaded to: SVG Repo, www.svgrepo.com, Generator: SVG Repo Mixer Tools -->
<svg width="800px" height="800px" viewBox="0 -103.9 437.753 437.753" xmlns="http://www.w3.org/2000/svg"><defs><style>.a{fill:#ffffff;}.b{fill:#211715;}.c{fill:#5394cf;}.d{fill:#645d5c;}.e{fill:#cfcfcf;}.f{fill:#f3736f;}</style></defs><path class="a" d="M14.771,2.067l408.435-.029a1.988,1.988,0,0,1,1.992,2c-.012,22.162-.144,209.766-.144,214.306-30.359,0-374,.326-412.279.33,0-6.264,0-192.779,0-214.606A1.994,1.994,0,0,1,14.771,2.067Z"/><path class="b" d="M14.771,4.067l36.972,0,64.954,0,80.58,0,83.849-.006,74.759,0,53.314,0h11.958a8.267,8.267,0,0,1,1.442,0c.715.137.477-.121.6.618.361,2.185,0,4.751,0,6.964l-.006,10.6q-.022,33.585-.046,67.17-.027,38.662-.053,77.326-.017,24.282-.033,48.564,0,1.531,0,3.063l2-2q-8.634,0-17.267.01-15.861.011-31.721.024l-42.726.035-50.277.043-54.38.047-55.03.047-52.229.044-45.978.038q-18.138.015-36.275.027-11.561.009-23.121.014H12.775l2,2V196.833q0-23.784,0-47.568V5.811c0-.143-.03-1.741,0-1.744,2.514-.337,2.548-4.341,0-4-3.85.515-4,3.535-4,6.624V140.378q0,25.5,0,51.009c0,8.821-.147,17.657,0,26.478,0,.268,0,.536,0,.8a2.029,2.029,0,0,0,2,2q9.678,0,19.358-.01l33.361-.024q21.956-.018,43.911-.036l51.013-.042,54.661-.047,54.859-.047,51.606-.045,44.9-.037,34.747-.027q10.57-.008,21.141-.014h2.719a2.029,2.029,0,0,0,2-2q0-18.015.023-36.031l.051-74.681q.026-36.631.05-73.264.009-11.947.016-23.894c0-2.131.134-4.309,0-6.436-.289-4.7-5.342-4-8.7-4l-45.541,0-70.607,0-83.11.006-83.05.006-70.427,0-45.239,0H14.771C12.2.067,12.193,4.067,14.771,4.067Z"/><path class="a" d="M435.753,218.266c0-5.171-.059-3.108-.059-10.469l-433.609.016c0,5.679-.085.96-.085,10.478H12.7c-.023,1.542-.047,4.6-.047,9.656l412.449-.025c0-3.666-.03-6.411-.047-9.655Z"/><path class="b" d="M437.753,218.266c0-3.489-.058-6.979-.059-10.469a2.029,2.029,0,0,0-2-2h-48.71l-46.5,0-55.527,0-60.465,0-60.854,0-56.685,0H58.525l-35.963,0H2.085a2.029,2.029,0,0,0-2,2C.083,211.306,0,214.8,0,218.291a2.029,2.029,0,0,0,2,2H12.7l-2-2c-.045,3.218-.046,6.437-.047,9.656a2.03,2.03,0,0,0,2,2h46.3l44.322,0,53.157,0,57.666,0,57.778,0,53.975,0,46.2,0,34.026,0H425.1a2.03,2.03,0,0,0,2-2c0-3.218-.029-6.437-.047-9.655l-2,2h10.7c2.574,0,2.578-4,0-4h-10.7a2.028,2.028,0,0,0-2,2c.018,3.218.045,6.437.047,9.655l2-2H412l-30.462,0-43.456,0-52.62,0-57.46,0-57.9,0-54.431,0-46.987,0-35.147,0H12.652l2,2c0-3.219,0-6.438.047-9.656a2.028,2.028,0,0,0-2-2H2l2,2c0-3.493.083-6.985.085-10.478l-2,2H48.5l45.776,0,55.077,0,60.293,0,60.959,0,57.066,0,49.088,0h58.931l-2-2c0,3.49.058,6.98.059,10.469C433.754,220.84,437.754,220.845,437.753,218.266Z"/><path class="a" d="M415.672,218.489c-10.415,0-111.5.157-125.882.157"/><path class="b" d="M415.672,216.489q-7.574,0-15.147.016l-27.962.037-32.859.046q-14.919.02-29.838.039-9.426.01-18.853.019H289.79c-2.573,0-2.578,4,0,4q8.51,0,17.017-.016,14.463-.017,28.925-.037l32.915-.045q14.493-.021,28.986-.039,8.552-.012,17.1-.019h.935c2.574,0,2.579-4,0-4Z"/><path class="a" d="M275.9,218.489c-10.416,0-239.987.157-254.37.157"/><path class="b" d="M275.9,216.489q-4.446,0-8.892,0l-19.064.011-26.667.017-32.039.02-34.748.023-35.153.023-33.144.021-28.819.018-21.852.013-12.617.006H21.534c-2.574,0-2.578,4,0,4q4.97,0,9.94,0l19.886-.012,27.262-.016,32.408-.021,34.888-.023,35.067-.022,32.833-.021,28.277-.018,21.087-.013q5.811,0,11.622-.006h1.1c2.574,0,2.578-4,0-4Z"/><path class="a" d="M38.36,207.017c0-7.111.064-5.921.064-10.163,9.476,0,25.076-.012,38.218-.012,0,5.5.045,6.293.045,10.156C68.879,207,50.543,207.017,38.36,207.017Z"/><path class="b" d="M40.36,207.017c0-3.388.063-6.776.064-10.163l-2,2q19.109,0,38.218-.012l-2-2c0,3.385.044,6.771.045,10.156l2-2q-19.164,0-38.327.019c-2.574,0-2.578,4,0,4q19.164,0,38.327-.019a2.029,2.029,0,0,0,2-2c0-3.385-.044-6.771-.045-10.156a2.029,2.029,0,0,0-2-2q-19.108,0-38.218.012a2.029,2.029,0,0,0-2,2c0,3.387-.063,6.775-.064,10.163C36.359,209.591,40.359,209.6,40.36,207.017Z"/><path class="c" d="M35.538,197.4c0-7.229.074-6.02.074-10.334,10.871,0,28.769-.012,43.845-.012,0,5.591.052,6.4.052,10.327C70.551,197.385,49.516,197.4,35.538,197.4Z"/><path class="b" d="M37.538,197.4c0-3.445.072-6.889.074-10.334l-2,2q21.922,0,43.845-.012l-2-2c0,3.443.05,6.885.052,10.327l2-2q-21.985,0-43.971.019c-2.574,0-2.578,4,0,4q21.986,0,43.971-.019a2.03,2.03,0,0,0,2-2c0-3.442-.051-6.884-.052-10.327a2.029,2.029,0,0,0-2-2q-21.922,0-43.845.012a2.03,2.03,0,0,0-2,2c0,3.445-.073,6.889-.074,10.334C33.538,199.978,37.538,199.983,37.538,197.4Z"/><path class="d" d="M52.258,196.984c0-8.094.018-6.74.018-11.569,2.6,0,6.889-.014,10.5-.014,0,6.26.012,7.164.012,11.562C60.643,196.963,55.606,196.984,52.258,196.984Z"/><path class="b" d="M54.258,196.984c0-3.856.018-7.713.018-11.569l-2,2c3.5,0,7-.014,10.5-.014l-2-2c0,3.854.012,7.708.012,11.562l2-2c-3.51,0-7.02.021-10.53.021a2,2,0,0,0,0,4c3.51,0,7.02-.021,10.53-.021a2.029,2.029,0,0,0,2-2c0-3.854-.012-7.708-.012-11.562a2.029,2.029,0,0,0-2-2c-3.5,0-7,.013-10.5.014a2.029,2.029,0,0,0-2,2c0,3.856-.017,7.713-.018,11.569a2,2,0,0,0,4,0Z"/><path class="d" d="M130.814,207.017c0-5.446-.048-5.776-.048-9.025-6.968,0-30.581-.009-40.246-.009,0,4.211-.033,6.06-.033,9.019C96.229,207,121.854,207.017,130.814,207.017Z"/><path class="e" d="M90.518,199.74c0-.538,0-1.118,0-1.752l12.456,0v9.021l-12.489,0C90.487,204.494,90.511,202.781,90.518,199.74Z"/><path class="b" d="M132.814,207.017c0-3.009-.046-6.017-.048-9.025a2.028,2.028,0,0,0-2-2q-16.044,0-32.089-.008H90.52a2.03,2.03,0,0,0-2,2c0,3.006-.031,6.013-.033,9.019a2.029,2.029,0,0,0,2,2q16.174,0,32.349.013l7.978,0c2.573,0,2.578-4,0-4q-17.005,0-34.009-.013l-6.318,0,2,2c0-3.006.032-6.013.033-9.019l-2,2q16.743,0,33.485.007l6.761,0-2-2c0,3.008.047,6.016.048,9.025C128.814,209.591,132.814,209.6,132.814,207.017Z"/><path class="b" d="M100.976,198.16v8.846a2,2,0,0,0,4,0V198.16a2,2,0,1,0-4,0Z"/><path class="f" d="M181.837,207.017c0-5.446-.047-5.776-.047-9.025-6.969,0-30.582-.009-40.246-.009,0,4.211-.033,6.06-.033,9.019C147.253,207,172.877,207.017,181.837,207.017Z"/><path class="e" d="M141.542,199.74c0-.538,0-1.118,0-1.752l12.456,0v9.021l-12.489,0C141.511,204.494,141.535,202.781,141.542,199.74Z"/><path class="b" d="M183.837,207.017c0-3.009-.046-6.017-.047-9.025a2.028,2.028,0,0,0-2-2q-16.044,0-32.089-.008h-8.157a2.029,2.029,0,0,0-2,2c0,3.006-.032,6.013-.033,9.019a2.029,2.029,0,0,0,2,2q16.175,0,32.348.013l7.978,0c2.574,0,2.578-4,0-4q-17,0-34.009-.013l-6.317,0,2,2c0-3.006.032-6.013.033-9.019l-2,2q16.743,0,33.485.007l6.761,0-2-2c0,3.008.046,6.016.047,9.025C179.838,209.591,183.838,209.6,183.837,207.017Z"/><path class="b" d="M152,198.16v8.846a2,2,0,0,0,4,0V198.16a2,2,0,1,0-4,0Z"/></svg>